<svg xmlns="http://www.w3.org/2000/svg" width="32" height="32" viewBox="0 0 32 32" fill="none">
<g clip-path="url(#clip0_44_392)">
<path d="M15.9712 0C20.4651 0 24.2571 1.5424 27.3419 4.62933C30.4469 7.73333 32 11.5232 32 16C32 20.496 30.4747 24.2379 27.4272 27.2277C24.1899 30.4107 20.3712 32 15.9712 32C11.6469 32 7.89547 30.4277 4.71467 27.2853C1.57227 24.1419 0 20.3808 0 16C0 11.6192 1.57227 7.82933 4.71467 4.62933C7.80053 1.5424 11.552 0 15.9712 0ZM16.0288 2.8864C12.3915 2.8864 9.31413 4.16213 6.8 6.71467C4.18987 9.38133 2.88533 12.4768 2.88533 16.0011C2.88533 19.5435 4.18027 22.6101 6.77013 25.2C9.36107 27.7909 12.4469 29.0848 16.0277 29.0848C19.5893 29.0848 22.6944 27.7813 25.3419 25.1701C27.8571 22.752 29.1136 19.6949 29.1136 15.9989C29.1136 12.3616 27.8368 9.2672 25.2853 6.7136C22.7339 4.16213 19.648 2.8864 16.0288 2.8864ZM20.3147 12.0277V18.5707H18.4853V26.3424H13.5147V18.5707H11.6864V12.0277C11.6838 11.8923 11.709 11.7579 11.7604 11.6326C11.8117 11.5073 11.8882 11.3938 11.9851 11.2992C12.0798 11.2022 12.1934 11.1255 12.3189 11.074C12.4444 11.0224 12.579 10.9971 12.7147 10.9995H19.2864C19.5531 10.9995 19.792 11.0987 20.0011 11.2981C20.1017 11.3908 20.1817 11.5038 20.2357 11.6295C20.2897 11.7552 20.3167 11.8909 20.3147 12.0277ZM13.7707 7.91467C13.7707 6.41067 14.5131 5.6576 16 5.6576C17.4869 5.6576 18.2293 6.4096 18.2293 7.91467C18.2293 9.40053 17.4859 10.144 16 10.144C14.5141 10.144 13.7707 9.40053 13.7707 7.91467Z" fill="currentColor" style="fill:currentColor;fill-opacity:1;"/>
</g>
<defs>
<clipPath id="clip0_44_392">
<rect width="32" height="32" fill="white" style="fill:white;fill-opacity:1;"/>
</clipPath>
</defs>
</svg>