<svg xmlns="http://www.w3.org/2000/svg" width="32" height="32" viewBox="0 0 32 32" fill="none">
<g clip-path="url(#clip0_44_389)">
<path d="M15.9703 0C20.446 0 24.2572 1.56267 27.3996 4.68587C28.8797 6.15498 30.0457 7.90962 30.8268 9.8432C31.6087 11.776 32.0001 13.8283 32.0001 16C32.0001 18.1909 31.6129 20.2432 30.8428 22.1568C30.0732 24.0678 28.9103 25.7955 27.4295 27.2277C25.9064 28.745 24.1006 29.9488 22.1143 30.7712C20.1682 31.5834 18.0801 32.0011 15.9713 32C13.8572 32 11.8327 31.5947 9.89988 30.784C7.95285 29.9657 6.18593 28.7722 4.69988 27.2715C3.16708 25.7387 2.00014 24.0096 1.20014 22.0853C0.399211 20.1569 -0.00875832 18.0881 0.000142566 16C0.000142566 13.8859 0.405476 11.8528 1.21401 9.89973C2.0315 7.93581 3.23088 6.15379 4.74254 4.65707C7.79001 1.55307 11.5329 0 15.9703 0ZM16.0289 2.8864C12.3713 2.8864 9.29508 4.16213 6.80014 6.71467C5.56911 7.95095 4.5845 9.41013 3.89881 11.0144C3.22545 12.5904 2.88064 14.2872 2.88548 16.0011C2.88548 17.7152 3.22254 19.3675 3.89881 20.9568C4.57811 22.5523 5.56384 23.999 6.80014 25.2149C8.01821 26.4367 9.4642 27.4076 11.0561 28.0725C12.638 28.7296 14.2956 29.0581 16.0289 29.0581C17.7431 29.0581 19.4039 28.7253 21.0156 28.0587C22.638 27.3827 24.1165 26.4034 25.3719 25.1733C27.8668 22.7349 29.1137 19.6779 29.1137 16C29.1137 14.2293 28.7895 12.5536 28.1431 10.9728C27.4931 9.38793 26.5315 7.94972 25.3153 6.74347C22.7425 4.1728 19.6471 2.8864 16.0289 2.8864ZM15.8284 13.3429L13.6844 14.4576C13.4551 13.9829 13.1756 13.6491 12.8417 13.4581C12.5089 13.2683 12.1996 13.1723 11.9137 13.1723C10.4844 13.1723 9.76974 14.1152 9.76974 16.0011C9.76974 16.8576 9.95108 17.5435 10.3127 18.0576C10.6753 18.5717 11.2087 18.8299 11.9127 18.8299C12.8471 18.8299 13.5041 18.3712 13.886 17.4581L15.8561 18.4576C15.4551 19.2201 14.8521 19.8577 14.1132 20.3008C13.3708 20.7488 12.5516 20.9728 11.6567 20.9728C10.2273 20.9728 9.07534 20.5355 8.19854 19.6576C7.32281 18.7829 6.88441 17.5627 6.88441 16.0011C6.88441 14.4779 7.32814 13.2683 8.21348 12.3733C9.09881 11.4773 10.2177 11.0293 11.5703 11.0293C13.5521 11.0293 14.9708 11.8005 15.8284 13.344V13.3429ZM25.0572 13.3429L22.942 14.4576C22.7137 13.9829 22.4321 13.6491 22.0993 13.4581C21.7655 13.2683 21.4455 13.1723 21.1425 13.1723C19.7132 13.1723 18.9985 14.1152 18.9985 16.0011C18.9985 16.8576 19.1799 17.5435 19.5425 18.0576C19.9031 18.5717 20.4364 18.8299 21.1425 18.8299C22.0748 18.8299 22.7319 18.3712 23.1127 17.4581L25.1127 18.4576C24.6954 19.2175 24.0845 19.8534 23.342 20.3008C22.5996 20.7488 21.79 20.9728 20.9132 20.9728C19.4657 20.9728 18.3095 20.5355 17.4433 19.6576C16.5751 18.7829 16.142 17.5627 16.142 16.0011C16.142 14.4779 16.5847 13.2683 17.4711 12.3733C18.3564 11.4773 19.4753 11.0293 20.8279 11.0293C22.8087 11.0293 24.2199 11.8005 25.0572 13.344V13.3429Z" fill="currentColor" style="fill:currentColor;fill-opacity:1;"/>
</g>
<defs>
<clipPath id="clip0_44_389">
<rect width="32" height="32" fill="white" style="fill:white;fill-opacity:1;"/>
</clipPath>
</defs>
</svg>